<?xml version="1.0" encoding="UTF-8" standalone="no"?>
<!-- Created with Inkscape (http://www.inkscape.org/) -->

<svg
   xmlns:dc="http://purl.org/dc/elements/1.1/"
   xmlns:cc="http://creativecommons.org/ns#"
   xmlns:rdf="http://www.w3.org/1999/02/22-rdf-syntax-ns#"
   xmlns:svg="http://www.w3.org/2000/svg"
   xmlns="http://www.w3.org/2000/svg"
   xmlns:xlink="http://www.w3.org/1999/xlink"
   xmlns:sodipodi="http://sodipodi.sourceforge.net/DTD/sodipodi-0.dtd"
   xmlns:inkscape="http://www.inkscape.org/namespaces/inkscape"
   id="svg21764"
   height="75.000504mm"
   width="114.48215mm"
   version="1.1"
   viewBox="0 0 405.64763 265.75241"
   inkscape:version="0.91 r13725"
   sodipodi:docname="all_logos.svg">
  <sodipodi:namedview
     pagecolor="#ffffff"
     bordercolor="#666666"
     borderopacity="1"
     objecttolerance="10"
     gridtolerance="10"
     guidetolerance="10"
     inkscape:pageopacity="0"
     inkscape:pageshadow="2"
     inkscape:window-width="2560"
     inkscape:window-height="1456"
     id="namedview15257"
     showgrid="false"
     fit-margin-top="2"
     fit-margin-right="5"
     fit-margin-bottom="2"
     fit-margin-left="5"
     inkscape:zoom="1.993673"
     inkscape:cx="97.525636"
     inkscape:cy="183.37319"
     inkscape:window-x="0"
     inkscape:window-y="64"
     inkscape:window-maximized="1"
     inkscape:current-layer="svg21764" />
  <defs
     id="defs15188">
    <clipPath
       id="SVGID_2_">
      <use
         id="use5055"
         xlink:href="#SVGID_1_"
         height="100%"
         width="100%"
         y="0"
         x="0"
         overflow="visible"
         style="overflow:visible" />
    </clipPath>
    <rect
       id="SVGID_1_"
       y="-56.234001"
       x="-56.164001"
       height="275"
       width="800" />
  </defs>
  <metadata
     id="metadata21769">
    <rdf:RDF>
      <cc:Work
         rdf:about="">
        <dc:format>image/svg+xml</dc:format>
        <dc:type
           rdf:resource="http://purl.org/dc/dcmitype/StillImage" />
        <dc:title></dc:title>
      </cc:Work>
    </rdf:RDF>
  </metadata>
  <g
     transform="matrix(1.25,0,0,-1.25,9.0838296,156.79765)"
     id="g4332">
    <g
       transform="translate(-13.638,25.222)"
       id="g4323">
      <path
         style="fill:#bed13d"
         inkscape:connector-curvature="0"
         d="m 32.256,60.936 c 0,3.426 2.778,6.205 6.204,6.205 3.427,0 6.204,-2.779 6.204,-6.205 0,-3.429 -2.777,-6.206 -6.204,-6.206 -3.426,0 -6.204,2.777 -6.204,6.206"
         id="path22" />
      <path
         style="fill:#bcbec0"
         inkscape:connector-curvature="0"
         d="m 95.084,60.936 c 0,3.426 2.778,6.205 6.203,6.205 3.428,0 6.204,-2.779 6.204,-6.205 0,-3.429 -2.776,-6.206 -6.204,-6.206 -3.425,0 -6.203,2.777 -6.203,6.206"
         id="path26" />
      <path
         style="fill:#d1d3d4"
         inkscape:connector-curvature="0"
         d="m 50.248,93.032 c 2.922,1.786 6.741,0.864 8.53,-2.058 1.786,-2.923 0.865,-6.741 -2.057,-8.53 -2.924,-1.788 -6.742,-0.866 -8.531,2.058 -1.786,2.922 -0.866,6.742 2.058,8.53"
         id="path30" />
      <path
         style="fill:#939598"
         inkscape:connector-curvature="0"
         d="m 83.024,39.429 c 2.922,1.788 6.742,0.865 8.53,-2.057 1.786,-2.922 0.866,-6.742 -2.057,-8.53 -2.924,-1.788 -6.742,-0.865 -8.53,2.058 -1.786,2.922 -0.867,6.741 2.057,8.529"
         id="path34" />
      <path
         style="fill:#6d6f71"
         inkscape:connector-curvature="0"
         d="m 88.265,93.753 c 2.987,-1.673 4.052,-5.457 2.379,-8.444 -1.676,-2.99 -5.457,-4.054 -8.446,-2.379 -2.99,1.676 -4.055,5.456 -2.377,8.447 1.673,2.987 5.455,4.052 8.444,2.376"
         id="path38" />
      <path
         style="fill:#a7a9ac"
         inkscape:connector-curvature="0"
         d="m 57.548,38.946 c 2.987,-1.675 4.054,-5.455 2.379,-8.446 -1.676,-2.988 -5.457,-4.052 -8.445,-2.377 -2.99,1.676 -4.054,5.455 -2.379,8.446 1.674,2.988 5.456,4.053 8.445,2.377"
         id="path42" />
      <path
         style="fill:#21bde4"
         inkscape:connector-curvature="0"
         d="M 51.979,71.078 69.708,81.502 87.6,71.361 87.767,50.794 70.035,40.367 52.143,50.51 51.979,71.078 Z"
         id="path46" />
    </g>
    <g
       transform="matrix(0.59314,0,0,0.59314,-68.196,-3.9539)"
       id="g4314">
      <g
         style="fill:#bed13d"
         id="g15205">
        <path
           inkscape:connector-curvature="0"
           d="m 147.68,47.636 -5.334,0 0,15.417 c 0,1.912 -0.361,3.34 -1.085,4.282 -0.723,0.941 -1.853,1.414 -3.391,1.414 -2.047,0 -3.55,-0.667 -4.508,-2.001 -0.956,-1.334 -1.436,-3.553 -1.436,-6.657 l 0,-12.455 -5.309,0 0,25 4.158,0 0.744,-3.277 0.273,0 c 0.692,1.189 1.699,2.108 3.016,2.757 1.319,0.648 2.769,0.972 4.351,0.972 3.843,0 6.389,-1.312 7.639,-3.933 l 0.361,0 c 0.741,1.236 1.78,2.199 3.121,2.894 1.341,0.692 2.877,1.039 4.61,1.039 2.984,0 5.157,-0.754 6.52,-2.261 1.365,-1.506 2.046,-3.805 2.046,-6.895 l 0,-16.296 -5.311,0 0,15.417 c 0,1.912 -0.365,3.34 -1.096,4.282 -0.73,0.941 -1.864,1.414 -3.401,1.414 -2.065,0 -3.575,-0.644 -4.532,-1.934 -0.957,-1.287 -1.436,-3.266 -1.436,-5.932 l 0,-13.247 z"
           id="path50" />
        <path
           inkscape:connector-curvature="0"
           d="m 173.86,47.637 -5.31,0 0,25 5.31,0 0,-25 z m -5.628,31.622 c 0,0.949 0.26,1.68 0.779,2.192 0.522,0.512 1.264,0.767 2.229,0.767 0.934,0 1.66,-0.255 2.18,-0.767 0.52,-0.512 0.78,-1.243 0.78,-2.192 0,-0.904 -0.26,-1.617 -0.78,-2.137 -0.52,-0.519 -1.246,-0.779 -2.18,-0.779 -0.965,0 -1.707,0.26 -2.229,0.779 -0.519,0.52 -0.779,1.233 -0.779,2.137"
           id="path52" />
        <path
           inkscape:connector-curvature="0"
           d="m 189,51.481 c 2.187,0 3.773,0.61 4.771,1.839 0.994,1.228 1.505,3.224 1.535,5.978 l 0,0.749 c 0,3.148 -0.512,5.387 -1.535,6.712 -1.026,1.326 -2.629,1.99 -4.817,1.99 -1.867,0 -3.308,-0.758 -4.314,-2.271 -1.011,-1.516 -1.515,-3.676 -1.515,-6.477 0,-2.774 0.488,-4.885 1.469,-6.339 0.978,-1.454 2.447,-2.181 4.406,-2.181 m -1.424,-4.296 c -3.119,0 -5.553,1.131 -7.301,3.391 -1.748,2.26 -2.621,5.43 -2.621,9.515 0,4.1 0.886,7.291 2.657,9.573 1.769,2.283 4.222,3.424 7.358,3.424 3.282,0 5.784,-1.214 7.503,-3.638 l 0.269,0 c -0.254,1.792 -0.381,3.209 -0.381,4.248 l 0,9.109 5.333,0 0,-35.171 -4.161,0 -0.926,3.279 -0.246,0 c -1.705,-2.487 -4.2,-3.73 -7.484,-3.73"
           id="path56" />
        <path
           inkscape:connector-curvature="0"
           d="m 209.65,60.182 c 0,-5.771 2.133,-8.657 6.396,-8.657 4.218,0 6.329,2.886 6.329,8.657 0,5.709 -2.124,8.567 -6.373,8.567 -2.233,0 -3.847,-0.738 -4.848,-2.216 -1.004,-1.477 -1.504,-3.593 -1.504,-6.351 m 18.193,0 c 0,-4.085 -1.047,-7.271 -3.14,-9.563 -2.096,-2.29 -5.011,-3.434 -8.746,-3.434 -2.337,0 -4.403,0.527 -6.195,1.581 -1.793,1.054 -3.173,2.569 -4.134,4.543 -0.965,1.974 -1.448,4.268 -1.448,6.873 0,4.052 1.039,7.218 3.118,9.493 2.081,2.275 5.01,3.413 8.792,3.413 3.618,0 6.481,-1.165 8.59,-3.492 2.109,-2.329 3.163,-5.467 3.163,-9.414"
           id="path60" />
      </g>
      <g
         style="fill:#939598"
         id="g15211">
        <path
           inkscape:connector-curvature="0"
           d="m 248.76,47.636 0,16.027 c 0,2.017 -0.46,3.526 -1.377,4.52 -0.92,0.995 -2.358,1.492 -4.317,1.492 -2.591,0 -4.492,-0.702 -5.697,-2.102 -1.206,-1.401 -1.806,-3.715 -1.806,-6.941 l 0,-12.996 -3.753,0 0,24.772 3.052,0 0.61,-3.389 0.18,0 c 0.767,1.219 1.845,2.166 3.231,2.837 1.388,0.67 2.933,1.006 4.636,1.006 2.98,0 5.226,-0.719 6.733,-2.158 1.506,-1.44 2.261,-3.742 2.261,-6.906 l 0,-16.162 -3.753,0 z"
           id="path64" />
        <path
           inkscape:connector-curvature="0"
           d="m 267.35,69.719 c -1.989,0 -3.573,-0.646 -4.758,-1.942 -1.181,-1.296 -1.881,-3.089 -2.092,-5.38 l 12.953,0 c 0,2.365 -0.528,4.178 -1.582,5.436 -1.055,1.257 -2.562,1.886 -4.521,1.886 m 1.019,-22.534 c -3.664,0 -6.551,1.117 -8.668,3.344 -2.119,2.232 -3.177,5.328 -3.177,9.291 0,3.993 0.982,7.166 2.948,9.516 1.969,2.35 4.608,3.527 7.924,3.527 3.103,0 5.558,-1.021 7.368,-3.064 1.81,-2.042 2.711,-4.735 2.711,-8.08 l 0,-2.373 -17.063,0 c 0.076,-2.908 0.808,-5.117 2.204,-6.622 1.392,-1.508 3.355,-2.26 5.886,-2.26 2.667,0 5.304,0.555 7.911,1.672 l 0,-3.344 c -1.326,-0.574 -2.582,-0.985 -3.761,-1.233 -1.185,-0.25 -2.613,-0.374 -4.283,-0.374"
           id="path68" />
        <path
           inkscape:connector-curvature="0"
           d="m 289.56,50.282 c 0.662,0 1.303,0.047 1.921,0.146 0.616,0.097 1.107,0.2 1.47,0.304 l 0,-2.867 c -0.409,-0.196 -1.007,-0.359 -1.797,-0.487 -0.793,-0.127 -1.503,-0.193 -2.139,-0.193 -4.789,0 -7.185,2.523 -7.185,7.571 l 0,14.737 -3.548,0 0,1.809 3.548,1.561 1.583,5.288 2.168,0 0,-5.743 7.188,0 0,-2.915 -7.188,0 0,-14.577 c 0,-1.494 0.355,-2.639 1.061,-3.435 0.71,-0.8 1.682,-1.199 2.918,-1.199"
           id="path72" />
      </g>
    </g>
  </g>
  <g
     id="g15046"
     transform="matrix(0.17176374,0,0,0.17176376,25.999069,179.4498)">
    <g
       transform="translate(-1061.2591,-782.64688)"
       id="g15019">
      <path
         sodipodi:nodetypes="ccccssscccssscsssssscccsssssscscscccssssscccssssssscccccscscccssssssssccsssssssssssss"
         inkscape:connector-curvature="0"
         id="path15021"
         d="m 2036.7705,925.55096 0.5,-59.5 32,0 32,0 7.8393,3.3805 c 17.5805,7.5812 36.1338,22.8358 46.3623,38.1195 12.8053,19.1338 19.0967,37.923 21.5974,64.5 l 1.2232,13 60.4889,0 60.4889,0 -0.242,-10 c -0.7078,-29.245 -12.6728,-60.715 -32.3175,-85 -13.0321,-16.1105 -35.113,-34.1114 -50.4635,-41.1391 -2.9913,-1.3695 -5.6907,-2.8976 -5.9986,-3.3959 -0.308,-0.4982 4.0614,-3.2249 9.7097,-6.0594 13.3882,-6.7185 22.5013,-12.9394 32.7812,-22.37736 22.7343,-20.87253 36.9243,-45.15641 43.5496,-74.52821 10.4517,-46.33479 1.5743,-93.15935 -24.1438,-127.3481 -24.8002,-32.9687 -60.2508,-52.87431 -105.8042,-59.40939 -10.865,-1.55869 -23.1099,-1.73223 -122.5709,-1.7371 l -110.5,-0.005 0,47.5 0,47.5 100.5,0.55712 c 108.143,0.59949 104.6571,0.42835 119.0423,5.84447 7.3459,2.76577 16.4029,10.2969 20.5626,17.09841 9.4472,15.4471 9.9307,44.16904 1.0389,61.71628 -7.8215,15.43493 -23.0236,27.15304 -42.1438,32.48548 -7.9524,2.21784 -8.5681,2.23429 -103.5,2.76468 l -95.5,0.53315 -0.2576,106.49997 c -0.1417,58.575 -0.042,107.0666 0.2221,107.7591 0.3788,0.9942 11.2675,1.2046 51.7576,1 l 51.2779,-0.2591 z m 468.5,57.6201 c 40.8595,-5.3171 78.1601,-17.9804 109.8948,-37.3085 43.8497,-26.7067 73.6071,-67.403 86.6562,-118.5113 9.5672,-37.47129 8.7125,-89.66372 -2.0823,-127.14055 -23.9182,-83.03847 -95.292,-134.36209 -201.4687,-144.8725 -9.3957,-0.93008 -35.1802,-1.28692 -93,-1.28704 l -80,-1.8e-4 0,47.5 0,47.5 81.5,0.58237 c 55.5341,0.39683 83.7302,0.95915 88.5,1.76497 39.9726,6.75305 64.2221,22.86301 79.2554,52.65266 3.2535,6.447 8.0159,21.61867 9.7807,31.15834 2.4823,13.41776 3.0258,42.17549 1.0766,56.95378 -7.3056,55.38695 -39.5908,87.48545 -98.6127,98.04245 -7.094,1.2689 -15.5783,1.7178 -33.5,1.7724 l -24,0.073 -0.5,-61 -0.5,-61.00005 -51.5,0 -51.5,0 -0.2576,106.50005 c -0.1417,58.575 -0.03,107.0983 0.2491,107.8295 0.4178,1.0962 15.1252,1.2552 83.7576,0.9059 70.6593,-0.3596 85.2171,-0.6795 96.2509,-2.1154 z m 463.6439,1.341 c 32.9583,-3.3065 64.4415,-13.8755 92.5115,-31.0562 25.9765,-15.8993 55.381,-45.3234 71.3242,-71.3716 46.5267,-76.01557 41.93,-170.62596 -11.7557,-241.96064 -9.7133,-12.90651 -29.89,-33.08321 -42.7965,-42.79651 -71.3621,-53.70636 -165.9636,-58.27108 -242.0828,-11.681 -25.9765,15.89935 -55.381,45.32337 -71.3242,71.37163 -46.5267,76.01555 -41.93,170.62592 11.7557,241.96062 9.7133,12.9065 29.89,33.0832 42.7965,42.7965 43.4579,32.706 97.0176,48.0096 149.5714,42.7372 z m -38.3585,-104.5117 c -9.6297,-1.4994 -23.9068,-5.9745 -32.0225,-10.0372 -21.0675,-10.5464 -39.6287,-29.1076 -50.1751,-50.17508 -6.7664,-13.51659 -11.576,-34.38922 -11.576,-50.23709 0,-15.84787 4.8096,-36.7205 11.576,-50.23709 10.5464,-21.06748 29.1076,-39.6287 50.1751,-50.17507 13.5166,-6.76641 34.3892,-11.57605 50.237,-11.57605 15.8479,0 36.7206,4.80964 50.2372,11.57605 20.986,10.5056 39.6695,29.18903 50.175,50.17507 6.7664,13.51659 11.576,34.38922 11.576,50.23709 0,15.84787 -4.8096,36.7205 -11.576,50.23709 -10.5055,20.98608 -29.1891,39.66948 -50.175,50.17508 -19.5553,9.7894 -45.5572,13.6021 -68.4517,10.0372 z"
         style="fill:#7e0e0e" />
    </g>
    <g
       transform="matrix(6.6873801,0,0,6.6873801,-520.11229,-3538.4673)"
       id="g15041">
      <path
         inkscape:connector-curvature="0"
         style="opacity:1;fill:#7e0e0e;fill-opacity:1;stroke:none;stroke-width:8.10000038;stroke-miterlimit:4;stroke-dasharray:none;stroke-dashoffset:0;stroke-opacity:1"
         d="m 18.5625,464.07422 0,243.85156 1234.6191,0 0,-243.85156 -1234.6191,0 z m 837.37109,45.7168 c 9.56908,0 18.58336,0.87913 27.04297,2.63671 8.52893,1.75755 15.94777,3.98742 22.25782,6.69141 l -13,31.43359 c -10.95588,-5.27271 -22.98631,-7.9082 -36.0918,-7.9082 -11.99599,0 -21.28758,3.81834 -27.875,11.45703 -6.51807,7.57108 -9.77735,18.42065 -9.77735,32.54883 0,13.85782 2.94584,24.43761 8.83985,31.73828 5.96331,7.2331 14.52746,10.84961 25.6914,10.84961 6.10203,0 11.71839,-0.57541 16.84961,-1.72461 l 0,-23.21875 -27.14648,0 0,-30.92773 65.63086,0 0,79.90234 c -17.82063,5.94872 -37.40854,8.92383 -58.76563,8.92383 -23.43725,0 -41.57032,-6.62561 -54.39843,-19.875 -12.75876,-13.24943 -19.13868,-32.14325 -19.13868,-56.68164 0,-23.93005 7.00288,-42.55409 21.00977,-55.8711 14.00689,-13.31696 33.63091,-19.9746 58.87109,-19.9746 z m -528.27539,1.52148 54.81446,0 50.23828,148.85156 -44.9336,0 -7.48828,-27.7832 -49.40625,0 -7.69726,27.7832 -45.14063,0 49.61328,-148.85156 z m 332.42188,0 54.81445,0 50.23633,148.85156 -44.93164,0 -7.49024,-27.7832 -49.40429,0 -7.69727,27.7832 -45.14062,0 49.61328,-148.85156 z m -571.544924,0.60742 54.710934,0 31.72266,75.25196 0.83203,0 31.09961,-75.25196 54.81445,0 0,148.24414 -37.75586,0 0,-64.99609 c 0,-3.37993 0.0338,-7.13232 0.10352,-11.25586 0.13885,-4.12354 0.62463,-14.22786 1.45703,-30.31641 l -0.9375,0 -30.68359,86.56836 -39.10742,0 -31.09961,-86.77148 -0.93555,0 c 1.4562,18.18415 2.18359,32.31246 2.18359,42.38476 l 0,64.38672 -36.404294,0 0,-148.24414 z m 360.712894,0 53.66992,0 55.33398,103.02149 0.625,0 c -0.97079,-14.93937 -1.45703,-26.93784 -1.45703,-35.9961 l 0,-67.02539 36.61133,0 0,148.24414 -53.87695,0 -55.54297,-104.43945 -0.93555,0 c 1.31749,16.42654 1.97656,28.96647 1.97656,37.61914 l 0,66.82031 -36.40429,0 0,-148.24414 z m 490.10351,0 90.28124,0 0,32.14258 -49.19725,0 0,23.32227 45.55665,0 0,32.14453 -45.55665,0 0,27.98437 49.19725,0 0,32.65039 -90.28124,0 0,-148.24414 z m 116.90824,0 49.8222,0 c 41.3273,0 61.9903,14.60192 61.9903,43.80469 0,17.17015 -8.5983,30.45337 -25.795,39.84961 l 44.3086,64.58984 -46.5957,0 -32.2441,-53.94336 -10.4004,0 0,53.94336 -41.0859,0 0,-148.24414 z m -700.93363,23.82813 c -0.62411,3.44756 -1.87194,9.1261 -3.74414,17.03515 -1.80288,7.9091 -5.85987,23.49204 -12.16992,46.7461 l 32.34766,0 -6.55274,-24.33594 c -1.52551,-5.40795 -3.39826,-12.40518 -5.61719,-20.99024 -2.14957,-8.58508 -3.57029,-14.73715 -4.26367,-18.45507 z m 332.41992,0 c -0.62406,3.44756 -1.8719,9.1261 -3.74414,17.03515 -1.80284,7.9091 -5.85792,23.49204 -12.16797,46.7461 l 32.34571,0 -6.55078,-24.33594 c -1.52551,-5.40795 -3.39826,-12.40518 -5.61719,-20.99024 -2.14957,-8.58506 -3.57221,-14.73715 -4.26563,-18.45507 z m 409.59961,6.49023 0,33.86719 7.6953,0 c 14.3536,0 21.5313,-6.186 21.5313,-18.55664 0,-10.20742 -7.039,-15.31055 -21.1153,-15.31055 l -8.1113,0 z"
         transform="matrix(0.14953539,0,0,0.14953539,205.47435,492.23055)"
         id="rect15039" />
      <g
         transform="scale(1.0128038,0.9873581)"
         style="font-style:normal;font-variant:normal;font-weight:800;font-stretch:normal;font-size:31.45072365px;line-height:125%;font-family:'open sans';-inkscape-font-specification:'open sans Ultra-Bold';letter-spacing:0px;word-spacing:0px;fill:#ffffff;fill-opacity:1;stroke:none;stroke-width:1px;stroke-linecap:butt;stroke-linejoin:miter;stroke-opacity:1"
         id="text15035" />
    </g>
  </g>
  <g
     id="g3203"
     transform="matrix(0.61093367,0,0,-0.61093381,126.11196,321.77136)">
    <path
       d="m 113.8521,452.6143 -66.402,-114.876 c -0.519,-0.896 -0.942,-1.849 -1.247,-2.825 l -0.235,-0.755 0.331,-0.724 5.237,-11.374 0.34,-0.74 0.761,-0.306 c 0.758,-0.303 1.499,-0.488 2.122,-0.625 l 1.466,-0.326 0.757,1.29 4.242,7.224 2.738,4.838 66.963,115.984 1.778,3.215 -18.851,0 z"
       style="fill:#302a6e;fill-opacity:1;fill-rule:nonzero;stroke:none"
       id="path22-2"
       inkscape:connector-curvature="0" />
    <path
       d="m 154.978,474.0371 -3.033,-20.739 0,-6.92 60.161,-104.2 19.002,0 -76.13,131.859 z"
       style="fill:#7d65ac;fill-opacity:1;fill-rule:nonzero;stroke:none"
       id="path26-8"
       inkscape:connector-curvature="0" />
    <path
       d="m 235.1245,334.1182 c -0.072,0.289 -0.165,0.563 -0.261,0.839 l -0.069,0.197 -0.474,1.399 -1.474,0 -13.898,-0.052 -146.798,0 c -2.536,-4.256 -6.893,-11.6 -9.77,-16.457 l 161.088,0 0.004,0 c 1.885,0.004 3.683,0.373 5.35,1.108 l 0.695,0.301 0.334,0.684 5.126,10.603 0.315,0.663 -0.168,0.715 z"
       style="fill:#f1a92f;fill-opacity:1;fill-rule:nonzero;stroke:none"
       id="path30-3"
       inkscape:connector-curvature="0" />
    <path
       d="m 169.4048,430.0264 -3.455,3.201 -13.367,12.391 -0.66,0.611 0,0.901 0,61.994 0,2.056 2.058,0 13.367,0 2.057,0 0,-2.056 0,-74.385 0,-4.713 z"
       style="fill:#7d65ac;fill-opacity:1;fill-rule:nonzero;stroke:none"
       id="path34-0"
       inkscape:connector-curvature="0" />
    <path
       d="m 132.3818,486.3838 0,20.358 -10.385,0 0,-8.557 10.385,-11.801 z"
       style="fill:#7d65ac;fill-opacity:1;fill-rule:nonzero;stroke:none"
       id="path38-4"
       inkscape:connector-curvature="0" />
    <path
       d="m 107.6665,514.3994 14.305,-16.257 46.369,0 0.575,1.118 8.785,15.139 -70.034,0 z"
       style="fill:#7d65ac;fill-opacity:1;fill-rule:nonzero;stroke:none"
       id="path42-9"
       inkscape:connector-curvature="0" />
    <path
       d="m 133.2568,359.6709 c 0,0 -7.408,-5.492 -12.58,-3.978 0,0 25.562,-25.645 52.246,-1.012 0,0 8.937,10.345 8.516,17.871 l -3.499,0.952 c 0,0 -4.88,-24.234 -30.485,-21.233 0,0 -6.482,1.442 -14.198,7.4"
       style="fill:#f1a92f;fill-opacity:1;fill-rule:nonzero;stroke:none"
       id="path46-5"
       inkscape:connector-curvature="0" />
    <path
       d="m 125.5708,393.833 c 0,0 -0.837,9.186 3.155,12.81 0,0 -35.212,-8.454 -28.085,-44.067 0,0 4.176,-13.021 10.816,-16.582 l 2.64,2.487 c 0,0 -18.144,16.79 -2.247,37.088 0,0 4.607,4.782 13.721,8.264"
       style="fill:#302a6e;fill-opacity:1;fill-rule:nonzero;stroke:none"
       id="path50-3"
       inkscape:connector-curvature="0" />
    <path
       d="m 159.3965,383.8662 c 0,0 8.499,-3.592 9.824,-8.819 0,0 9.12,35.048 -25.645,45.53 0,0 -13.457,2.446 -19.724,-1.74 l 0.956,-3.5 c 0,0 23.352,8.098 33.77,-15.481 0,0 2.046,-6.311 0.819,-15.99"
       style="fill:#7d65ac;fill-opacity:1;fill-rule:nonzero;stroke:none"
       id="path54"
       inkscape:connector-curvature="0" />
    <path
       d="m 146.6992,396.6143 c -3.031,-3.387 -8.229,-3.676 -11.616,-0.65 -3.387,3.028 -3.683,8.236 -0.653,11.619 3.031,3.383 8.231,3.672 11.618,0.65 3.389,-3.029 3.674,-8.228 0.651,-11.619"
       style="fill:#7d65ac;fill-opacity:1;fill-rule:nonzero;stroke:none"
       id="path58"
       inkscape:connector-curvature="0" />
    <path
       d="m 125.1035,363.082 c -3.027,-3.391 -8.226,-3.685 -11.61,-0.654 -3.389,3.033 -3.68,8.227 -0.649,11.615 3.024,3.387 8.225,3.684 11.615,0.65 3.383,-3.025 3.671,-8.228 0.644,-11.611"
       style="fill:#302a6e;fill-opacity:1;fill-rule:nonzero;stroke:none"
       id="path62"
       inkscape:connector-curvature="0" />
    <path
       d="m 164.0859,361.4873 c -3.025,-3.383 -8.222,-3.681 -11.607,-0.655 -3.391,3.032 -3.683,8.232 -0.655,11.619 3.03,3.388 8.228,3.681 11.619,0.651 3.387,-3.03 3.669,-8.233 0.643,-11.615"
       style="fill:#f1a92f;fill-opacity:1;fill-rule:nonzero;stroke:none"
       id="path66"
       inkscape:connector-curvature="0" />
  </g>
  <g
     id="g4284"
     transform="matrix(0.45154612,0,0,0.45154617,-211.42733,82.700006)">
    <path
       style="fill:#dd4814"
       inkscape:connector-curvature="0"
       id="path4286"
       d="m 657.621,123.565 c -73.488,0 -133.063,59.573 -133.063,133.062 0,73.489 59.576,133.069 133.063,133.069 73.49,0 133.064,-59.58 133.064,-133.069 0,-73.489 -59.574,-133.062 -133.064,-133.062 z" />
    <path
       style="fill:#ffffff"
       inkscape:connector-curvature="0"
       id="path4288"
       d="m 593.043,338.909 c -1.128,1.128 -2.632,1.75 -4.233,1.75 l 0,0 c -1.605,0 -3.112,-0.624 -4.244,-1.757 -1.129,-1.128 -1.751,-2.632 -1.751,-4.234 0,-1.602 0.622,-3.105 1.751,-4.235 1.133,-1.132 2.64,-1.756 4.243,-1.756 1.601,0 3.104,0.622 4.233,1.751 1.131,1.131 1.753,2.637 1.753,4.24 0.002,1.605 -0.621,3.111 -1.752,4.241 z" />
    <path
       style="fill:#ffffff"
       inkscape:connector-curvature="0"
       id="path4290"
       d="m 619.154,249.424 c -0.603,-1.92 -1.47,-3.498 -2.579,-4.69 -1.105,-1.193 -2.443,-2.085 -3.978,-2.653 -1.543,-0.574 -3.291,-0.865 -5.194,-0.865 -1.903,0 -3.636,0.29 -5.147,0.863 -1.509,0.569 -2.834,1.462 -3.939,2.654 -1.107,1.19 -1.974,2.769 -2.578,4.691 -0.606,1.933 -0.914,4.299 -0.914,7.032 l 0,69.735 -12.038,0 0,-70.801 c 0,-3.572 0.484,-6.896 1.438,-9.88 0.957,-2.996 2.463,-5.641 4.475,-7.863 2.015,-2.226 4.586,-3.976 7.643,-5.203 3.05,-1.226 6.742,-1.848 10.973,-1.848 4.229,0 7.949,0.622 11.059,1.847 3.115,1.227 5.717,2.978 7.732,5.204 2.01,2.219 3.532,4.863 4.52,7.861 0.985,2.985 1.485,6.311 1.485,9.882 l 0,9.61 -12.038,0 0,-8.544 c -0.002,-2.723 -0.311,-5.089 -0.92,-7.032 z" />
    <path
       style="fill:#ffffff"
       inkscape:connector-curvature="0"
       id="path4292"
       d="m 669.396,298.309 c 0,3.579 -0.499,6.905 -1.483,9.885 -0.985,2.99 -2.507,5.634 -4.521,7.86 -2.016,2.225 -4.617,3.976 -7.732,5.203 -3.112,1.226 -6.833,1.848 -11.06,1.848 -4.227,0 -7.917,-0.622 -10.972,-1.849 -3.055,-1.226 -5.626,-2.976 -7.642,-5.201 -2.014,-2.226 -3.52,-4.872 -4.476,-7.864 -0.954,-2.983 -1.437,-6.308 -1.437,-9.882 l 0,-30.425 12.037,0 0,29.361 c 0,2.734 0.309,5.099 0.914,7.029 0.603,1.924 1.471,3.502 2.578,4.694 1.106,1.194 2.434,2.087 3.938,2.654 1.511,0.573 3.242,0.863 5.147,0.863 1.903,0 3.651,-0.291 5.193,-0.864 1.533,-0.568 2.871,-1.461 3.979,-2.653 1.108,-1.194 1.979,-2.773 2.579,-4.693 0.607,-1.94 0.917,-4.305 0.917,-7.03 l 0,-29.361 12.038,0 0,30.425 z" />
    <path
       style="fill:#ffffff"
       inkscape:connector-curvature="0"
       id="path4294"
       d="m 657.387,259.099 c 0,-3.302 2.685,-5.989 5.986,-5.989 3.305,0 5.995,2.687 5.995,5.989 0,3.305 -2.69,5.994 -5.995,5.994 -3.302,0 -5.986,-2.689 -5.986,-5.994 z" />
    <path
       style="fill:#ffffff"
       inkscape:connector-curvature="0"
       id="path4296"
       d="m 693.726,174.163 c -0.603,-1.92 -1.472,-3.499 -2.581,-4.693 -1.107,-1.193 -2.446,-2.085 -3.979,-2.652 -1.54,-0.573 -3.288,-0.863 -5.193,-0.863 -1.903,0 -3.635,0.29 -5.146,0.862 -1.508,0.569 -2.834,1.462 -3.941,2.653 -1.105,1.193 -1.973,2.772 -2.575,4.693 -0.606,1.932 -0.914,4.298 -0.914,7.032 l 0,69.734 -12.038,0 0,-70.8 c 0,-3.571 0.482,-6.896 1.438,-9.881 0.958,-2.996 2.463,-5.642 4.477,-7.863 2.012,-2.224 4.584,-3.975 7.643,-5.202 3.055,-1.227 6.744,-1.849 10.969,-1.849 4.227,0 7.948,0.622 11.06,1.848 3.119,1.228 5.719,2.979 7.731,5.203 2.014,2.22 3.535,4.865 4.522,7.86 0.983,2.988 1.483,6.314 1.483,9.885 l 0,9.609 -12.04,0 0,-8.543 c -0.002,-2.729 -0.31,-5.095 -0.916,-7.033 z" />
    <path
       style="fill:#ffffff"
       inkscape:connector-curvature="0"
       id="path4298"
       d="m 743.963,223.048 c 0,3.577 -0.499,6.903 -1.482,9.884 -0.986,2.993 -2.506,5.638 -4.518,7.86 -2.018,2.226 -4.619,3.976 -7.732,5.203 -3.115,1.226 -6.837,1.848 -11.06,1.848 -4.229,0 -7.921,-0.622 -10.974,-1.849 -3.057,-1.226 -5.626,-2.976 -7.642,-5.201 -2.012,-2.223 -3.518,-4.868 -4.476,-7.863 -0.954,-2.989 -1.438,-6.313 -1.438,-9.881 l 0,-30.426 12.038,0 0,29.361 c 0,2.729 0.308,5.095 0.915,7.031 0.603,1.92 1.469,3.499 2.58,4.692 1.106,1.194 2.432,2.087 3.937,2.654 1.513,0.573 3.243,0.863 5.146,0.863 1.907,0 3.654,-0.291 5.194,-0.864 1.534,-0.566 2.872,-1.459 3.981,-2.653 1.106,-1.19 1.975,-2.769 2.577,-4.692 0.607,-1.936 0.916,-4.301 0.916,-7.031 l 0,-29.361 12.037,0 0,30.425 z" />
  </g>
  <g
     transform="matrix(0.73147064,0,0,0.74334801,166.03176,-387.3334)"
     id="g4382">
    <path
       style="fill:#9e9e9e"
       d="m 224.33451,688.84903 c -0.86504,-1.23502 -2.27799,-4.36863 -3.13989,-6.96357 -1.81925,-5.47723 -2.07885,-5.71095 -9.75493,-8.78263 l -5.79745,-2.31992 -5.8276,2.61528 c -3.20518,1.4384 -6.6867,2.61527 -7.73672,2.61527 -1.05001,0 -4.32814,-2.44946 -7.28473,-5.44324 l -5.37562,-5.44323 3.19787,-7.33444 3.19788,-7.33443 -2.97488,-6.56095 c -2.9639,-6.53675 -3.00001,-6.57016 -9.78809,-9.05662 l -6.81322,-2.49567 0,-8.89031 0,-8.89032 6.86103,-2.52539 c 6.82854,-2.51344 6.875,-2.55618 9.81138,-9.0254 l 2.95036,-6.5 -3.16762,-7.22939 -3.16762,-7.2294 2.69296,-3.2706 c 1.48113,-1.79884 4.2855,-4.49051 6.23193,-5.98151 3.86318,-2.95924 3.74448,-2.97452 13.46915,1.73364 3.59791,1.74192 3.79896,1.73192 8.8473,-0.43981 2.84114,-1.22223 5.79694,-1.98002 6.56842,-1.68397 1.12472,0.43159 1.40271,3.78875 1.40271,16.93962 l 0,16.40135 -9.32446,20.88003 c -11.51951,25.79535 -10.89603,24.01669 -9.06162,25.8511 2.29805,2.29805 63.47865,2.29351 65.77704,-0.005 1.82183,-1.82183 2.51973,0.15418 -9.30123,-26.33516 l -9.08973,-20.36886 0,-16.41241 c 0,-13.16035 0.27794,-16.51905 1.4027,-16.95067 0.77149,-0.29605 3.71326,0.4557 6.53726,1.67056 l 5.13454,2.20882 6.63442,-3.08248 c 7.60656,-3.53416 7.66656,-3.51913 14.70964,3.68445 l 4.91856,5.03065 -3.27496,7.1051 -3.27495,7.10511 2.97654,6.68941 c 2.94898,6.62751 3.03531,6.71069 9.32756,8.98826 3.49306,1.26436 6.69461,2.83936 7.11454,3.5 0.41994,0.66064 0.77042,4.40856 0.77884,8.32872 0.0175,8.16972 -0.19115,8.45597 -8.51613,11.6806 -5.49376,2.12797 -5.82428,2.46628 -8.7039,8.90904 l -2.99329,6.69707 3.11432,6.65514 c 1.71287,3.66033 3.11431,6.85655 3.11431,7.10272 0,0.24618 -2.31528,2.89565 -5.14506,5.88773 -5.96195,6.30388 -7.47799,6.58417 -15.18038,2.80657 l -5.36975,-2.63357 -6.40241,2.54641 c -6.6291,2.63659 -6.95864,2.9982 -11.13707,12.22073 l -2.26533,5 -7.66491,0.29053 c -6.98281,0.26468 -7.80486,0.0907 -9.23771,-1.95496 z"
       id="path4276"
       inkscape:connector-curvature="0"
       sodipodi:nodetypes="ssscssscccsscccsscccsssssscsscscssscsscccsssssscsssscsscss" />
    <path
       style="fill:#c72e1e"
       d="m 220.96002,564.33347 c -3.17125,-3.37565 -2.951,-8.92944 0.46055,-11.61297 7.89031,-6.20652 17.98016,4.40331 10.91059,11.47287 -3.24779,3.2478 -8.39206,3.31118 -11.37114,0.1401 z m 20.02569,-12.88555 c -1.5425,-1.5425 -1.5425,-5.0575 0,-6.6 1.5425,-1.5425 5.0575,-1.5425 6.6,0 2.805,2.805 0.69173,7.8 -3.3,7.8 -1.155,0 -2.64,-0.54 -3.3,-1.2 z m -12.53333,-15.46667 c -0.36667,-0.36666 -0.66667,-1.71666 -0.66667,-3 0,-1.82993 0.54612,-2.33333 2.53138,-2.33333 1.39227,0 2.79261,0.68073 3.11188,1.51273 1.03642,2.70088 -2.99859,5.79861 -4.97659,3.8206 z"
       id="path4272-7"
       inkscape:connector-curvature="0"
       sodipodi:nodetypes="ssssssssscsssc" />
    <path
       style="fill:#c72e1e"
       d="m 205.21428,648.90366 c 0,-0.46827 3.91171,-9.35577 8.69269,-19.75 l 8.6927,-18.89859 0.5573,-18 0.55731,-18 10,0 10,0 0.54473,18 0.54474,18 8.16371,17.83138 c 4.49003,9.80726 8.43773,18.69476 8.77265,19.75 0.59064,1.86093 -0.25003,1.91862 -27.95844,1.91862 -15.71207,0 -28.56739,-0.38313 -28.56739,-0.85141 z"
       id="path4272-76"
       inkscape:connector-curvature="0"
       sodipodi:nodetypes="sscccccccssss" />
  </g>
</svg>
