<?xml version="1.0" encoding="UTF-8" standalone="no"?>
<!-- Created with Inkscape (http://www.inkscape.org/) -->

<svg
   xmlns:dc="http://purl.org/dc/elements/1.1/"
   xmlns:cc="http://creativecommons.org/ns#"
   xmlns:rdf="http://www.w3.org/1999/02/22-rdf-syntax-ns#"
   xmlns:svg="http://www.w3.org/2000/svg"
   xmlns="http://www.w3.org/2000/svg"
   xmlns:sodipodi="http://sodipodi.sourceforge.net/DTD/sodipodi-0.dtd"
   xmlns:inkscape="http://www.inkscape.org/namespaces/inkscape"
   width="113.71022mm"
   height="59.226624mm"
   viewBox="0 0 402.91023 209.85811"
   id="svg2"
   version="1.1"
   inkscape:version="0.91 r13725"
   sodipodi:docname="fuel_logo.svg">
  <defs
     id="defs4" />
  <sodipodi:namedview
     id="base"
     pagecolor="#ffffff"
     bordercolor="#666666"
     borderopacity="1.0"
     inkscape:pageopacity="0.0"
     inkscape:pageshadow="2"
     inkscape:zoom="2.8"
     inkscape:cx="34.173608"
     inkscape:cy="158.51326"
     inkscape:document-units="px"
     inkscape:current-layer="layer1"
     showgrid="false"
     fit-margin-top="7"
     fit-margin-left="5"
     fit-margin-right="5"
     fit-margin-bottom="7"
     inkscape:window-width="2560"
     inkscape:window-height="1456"
     inkscape:window-x="0"
     inkscape:window-y="64"
     inkscape:window-maximized="1" />
  <metadata
     id="metadata7">
    <rdf:RDF>
      <cc:Work
         rdf:about="">
        <dc:format>image/svg+xml</dc:format>
        <dc:type
           rdf:resource="http://purl.org/dc/dcmitype/StillImage" />
        <dc:title></dc:title>
      </cc:Work>
    </rdf:RDF>
  </metadata>
  <g
     inkscape:label="Layer 1"
     inkscape:groupmode="layer"
     id="layer1"
     transform="translate(-148.52059,-505.84477)">
    <g
       id="g4387">
      <path
         style="fill:#c72e1e"
         d="m 387.44275,665.6196 c -5.36592,-1.73813 -10.6338,-6.30146 -12.81226,-11.0987 -1.68267,-3.70544 -1.8745,-6.91303 -1.89424,-31.67298 -0.016,-20.11989 0.30167,-27.87363 1.17804,-28.75 1.55432,-1.55432 9.04568,-1.55432 10.6,0 0.8712,0.87121 1.2,8.25621 1.2,26.95295 0,17.11857 0.38149,26.59022 1.13784,28.25022 2.11552,4.64306 9.88348,5.43891 13.55232,1.38847 1.63245,-1.80224 1.84177,-4.60872 2.13557,-28.63364 0.20292,-16.59336 0.72036,-27.11107 1.37244,-27.89678 1.43619,-1.7305 9.26529,-1.61263 10.73782,0.16166 0.86237,1.03908 1.09769,8.92865 0.87245,29.25 -0.26192,23.62982 -0.5584,28.28276 -1.96559,30.8479 -2.07523,3.78291 -6.4954,8.24819 -9.91568,10.01688 -3.8532,1.99257 -11.88924,2.57995 -16.19871,1.18402 z m -71.22846,-72.22168 19.99735,-0.27197 c 17.91963,-0.2437 20.12751,-0.094 21.25,1.44113 1.78226,2.43738 1.54925,6.75295 -0.49735,9.21161 -1.59063,1.91087 -2.93393,2.12587 -14.75,2.36078 l -13,0.25845 -0.29774,6.84001 c -0.18204,4.18187 0.15701,7.38796 0.87244,8.25 0.83584,1.00713 3.55377,1.40999 9.51256,1.40999 9.10684,0 10.41274,0.81519 10.41274,6.5 0,5.67401 -1.31334,6.5 -10.33518,6.5 -5.09486,0 -8.72508,0.46026 -9.46482,1.2 -0.80249,0.80249 -1.2,5.25079 -1.2,13.42857 0,9.78355 -0.3142,12.54277 -1.57143,13.8 l -10.56346,-0.4345 c -0.18088,-15.70067 -0.439,-60.69884 -0.36511,-70.49407 z m 117.7,71.3 c -0.88588,-0.88588 -1.2,-10.02627 -1.2,-34.91821 0,-18.54502 0.27314,-34.43002 0.60699,-35.3 0.5253,-1.3689 3.27956,-1.58179 20.46482,-1.58179 18.60939,0 19.9229,0.1216 20.89301,1.93426 1.59884,2.98747 1.22711,7.58207 -0.75885,9.37934 -1.42177,1.28668 -4.48237,1.68196 -14.75,1.90499 l -12.95597,0.28141 0,8 0,8 9.28947,0.5 c 10.2904,0.55387 11.16958,1.10753 11.19522,7.05 0.022,5.11155 -1.35194,5.95 -9.75043,5.95 -10.36368,0 -11.23426,0.64592 -11.23426,8.33518 0,3.53931 0.52206,6.78688 1.2,7.46482 0.80249,0.80249 5.25079,1.2 13.42857,1.2 13.75954,0 15.37143,0.68161 15.37143,6.5 0,6.20413 -0.99556,6.5 -21.87143,6.5 -13.23333,0 -19.08067,-0.3521 -19.92857,-1.2 z m 58,0 c -1.71908,-1.71908 -1.71908,-68.88092 0,-70.6 1.55432,-1.55432 9.04568,-1.55432 10.6,0 0.87536,0.87536 1.2,8.66667 1.2,28.8 0,20.13333 0.32464,27.92464 1.2,28.8 0.80799,0.80799 5.36996,1.2 13.96482,1.2 14.1121,0 14.83518,0.3345 14.83518,6.86283 0,5.80196 -1.1946,6.13717 -21.87143,6.13717 -13.23333,0 -19.08067,-0.3521 -19.92857,-1.2 z"
         id="path4272"
         inkscape:connector-curvature="0"
         sodipodi:nodetypes="ssssssssssssssscsssscssssssscscssssssscccscssssssssssssssss" />
      <g
         id="g4382">
        <path
           sodipodi:nodetypes="ssscssscccsscccsscccsssssscsscscssscsscccsssssscsssscsscss"
           inkscape:connector-curvature="0"
           id="path4276"
           d="m 224.33451,688.84903 c -0.86504,-1.23502 -2.27799,-4.36863 -3.13989,-6.96357 -1.81925,-5.47723 -2.07885,-5.71095 -9.75493,-8.78263 l -5.79745,-2.31992 -5.8276,2.61528 c -3.20518,1.4384 -6.6867,2.61527 -7.73672,2.61527 -1.05001,0 -4.32814,-2.44946 -7.28473,-5.44324 l -5.37562,-5.44323 3.19787,-7.33444 3.19788,-7.33443 -2.97488,-6.56095 c -2.9639,-6.53675 -3.00001,-6.57016 -9.78809,-9.05662 l -6.81322,-2.49567 0,-8.89031 0,-8.89032 6.86103,-2.52539 c 6.82854,-2.51344 6.875,-2.55618 9.81138,-9.0254 l 2.95036,-6.5 -3.16762,-7.22939 -3.16762,-7.2294 2.69296,-3.2706 c 1.48113,-1.79884 4.2855,-4.49051 6.23193,-5.98151 3.86318,-2.95924 3.74448,-2.97452 13.46915,1.73364 3.59791,1.74192 3.79896,1.73192 8.8473,-0.43981 2.84114,-1.22223 5.79694,-1.98002 6.56842,-1.68397 1.12472,0.43159 1.40271,3.78875 1.40271,16.93962 l 0,16.40135 -9.32446,20.88003 c -11.51951,25.79535 -10.89603,24.01669 -9.06162,25.8511 2.29805,2.29805 63.47865,2.29351 65.77704,-0.005 1.82183,-1.82183 2.51973,0.15418 -9.30123,-26.33516 l -9.08973,-20.36886 0,-16.41241 c 0,-13.16035 0.27794,-16.51905 1.4027,-16.95067 0.77149,-0.29605 3.71326,0.4557 6.53726,1.67056 l 5.13454,2.20882 6.63442,-3.08248 c 7.60656,-3.53416 7.66656,-3.51913 14.70964,3.68445 l 4.91856,5.03065 -3.27496,7.1051 -3.27495,7.10511 2.97654,6.68941 c 2.94898,6.62751 3.03531,6.71069 9.32756,8.98826 3.49306,1.26436 6.69461,2.83936 7.11454,3.5 0.41994,0.66064 0.77042,4.40856 0.77884,8.32872 0.0175,8.16972 -0.19115,8.45597 -8.51613,11.6806 -5.49376,2.12797 -5.82428,2.46628 -8.7039,8.90904 l -2.99329,6.69707 3.11432,6.65514 c 1.71287,3.66033 3.11431,6.85655 3.11431,7.10272 0,0.24618 -2.31528,2.89565 -5.14506,5.88773 -5.96195,6.30388 -7.47799,6.58417 -15.18038,2.80657 l -5.36975,-2.63357 -6.40241,2.54641 c -6.6291,2.63659 -6.95864,2.9982 -11.13707,12.22073 l -2.26533,5 -7.66491,0.29053 c -6.98281,0.26468 -7.80486,0.0907 -9.23771,-1.95496 z"
           style="fill:#9e9e9e" />
        <path
           sodipodi:nodetypes="ssssssssscsssc"
           inkscape:connector-curvature="0"
           id="path4272-7"
           d="m 220.96002,564.33347 c -3.17125,-3.37565 -2.951,-8.92944 0.46055,-11.61297 7.89031,-6.20652 17.98016,4.40331 10.91059,11.47287 -3.24779,3.2478 -8.39206,3.31118 -11.37114,0.1401 z m 20.02569,-12.88555 c -1.5425,-1.5425 -1.5425,-5.0575 0,-6.6 1.5425,-1.5425 5.0575,-1.5425 6.6,0 2.805,2.805 0.69173,7.8 -3.3,7.8 -1.155,0 -2.64,-0.54 -3.3,-1.2 z m -12.53333,-15.46667 c -0.36667,-0.36666 -0.66667,-1.71666 -0.66667,-3 0,-1.82993 0.54612,-2.33333 2.53138,-2.33333 1.39227,0 2.79261,0.68073 3.11188,1.51273 1.03642,2.70088 -2.99859,5.79861 -4.97659,3.8206 z"
           style="fill:#c72e1e" />
        <path
           sodipodi:nodetypes="sscccccccssss"
           inkscape:connector-curvature="0"
           id="path4272-76"
           d="m 205.21428,648.90366 c 0,-0.46827 3.91171,-9.35577 8.69269,-19.75 l 8.6927,-18.89859 0.5573,-18 0.55731,-18 10,0 10,0 0.54473,18 0.54474,18 8.16371,17.83138 c 4.49003,9.80726 8.43773,18.69476 8.77265,19.75 0.59064,1.86093 -0.25003,1.91862 -27.95844,1.91862 -15.71207,0 -28.56739,-0.38313 -28.56739,-0.85141 z"
           style="fill:#c72e1e" />
      </g>
    </g>
  </g>
</svg>
