<?xml version="1.0" encoding="UTF-8" standalone="no"?>
<!-- Generator: Adobe Illustrator 15.0.2, SVG Export Plug-In . SVG Version: 6.00 Build 0)  -->

<svg
   xmlns:dc="http://purl.org/dc/elements/1.1/"
   xmlns:cc="http://creativecommons.org/ns#"
   xmlns:rdf="http://www.w3.org/1999/02/22-rdf-syntax-ns#"
   xmlns:svg="http://www.w3.org/2000/svg"
   xmlns="http://www.w3.org/2000/svg"
   xmlns:sodipodi="http://sodipodi.sourceforge.net/DTD/sodipodi-0.dtd"
   xmlns:inkscape="http://www.inkscape.org/namespaces/inkscape"
   version="1.1"
   id="Layer_1"
   x="0px"
   y="0px"
   width="519.987"
   height="532.73401"
   viewBox="0 0 519.98698 532.734"
   enable-background="new 0 0 1190.55 841.89"
   xml:space="preserve"
   inkscape:version="0.91 r13725"
   sodipodi:docname="juju_logo.svg"><metadata
     id="metadata4314"><rdf:RDF><cc:Work
         rdf:about=""><dc:format>image/svg+xml</dc:format><dc:type
           rdf:resource="http://purl.org/dc/dcmitype/StillImage" /><dc:title></dc:title></cc:Work></rdf:RDF></metadata><defs
     id="defs4312" /><sodipodi:namedview
     pagecolor="#ffffff"
     bordercolor="#666666"
     borderopacity="1"
     objecttolerance="10"
     gridtolerance="10"
     guidetolerance="10"
     inkscape:pageopacity="0"
     inkscape:pageshadow="2"
     inkscape:window-width="2560"
     inkscape:window-height="1456"
     id="namedview4310"
     showgrid="false"
     fit-margin-top="5"
     fit-margin-left="5"
     fit-margin-right="5"
     fit-margin-bottom="5"
     inkscape:zoom="1.3564717"
     inkscape:cx="259.99202"
     inkscape:cy="230.35399"
     inkscape:window-x="0"
     inkscape:window-y="64"
     inkscape:window-maximized="1"
     inkscape:current-layer="Layer_1" /><g
     id="g4282"
     transform="translate(-335.283,-118.565)"><g
       id="g4284"><path
         d="m 657.621,123.565 c -73.488,0 -133.063,59.573 -133.063,133.062 0,73.489 59.576,133.069 133.063,133.069 73.49,0 133.064,-59.58 133.064,-133.069 0,-73.489 -59.574,-133.062 -133.064,-133.062 z"
         id="path4286"
         inkscape:connector-curvature="0"
         style="fill:#dd4814" /><path
         d="m 593.043,338.909 c -1.128,1.128 -2.632,1.75 -4.233,1.75 l 0,0 c -1.605,0 -3.112,-0.624 -4.244,-1.757 -1.129,-1.128 -1.751,-2.632 -1.751,-4.234 0,-1.602 0.622,-3.105 1.751,-4.235 1.133,-1.132 2.64,-1.756 4.243,-1.756 1.601,0 3.104,0.622 4.233,1.751 1.131,1.131 1.753,2.637 1.753,4.24 0.002,1.605 -0.621,3.111 -1.752,4.241 z"
         id="path4288"
         inkscape:connector-curvature="0"
         style="fill:#ffffff" /><path
         d="m 619.154,249.424 c -0.603,-1.92 -1.47,-3.498 -2.579,-4.69 -1.105,-1.193 -2.443,-2.085 -3.978,-2.653 -1.543,-0.574 -3.291,-0.865 -5.194,-0.865 -1.903,0 -3.636,0.29 -5.147,0.863 -1.509,0.569 -2.834,1.462 -3.939,2.654 -1.107,1.19 -1.974,2.769 -2.578,4.691 -0.606,1.933 -0.914,4.299 -0.914,7.032 l 0,69.735 -12.038,0 0,-70.801 c 0,-3.572 0.484,-6.896 1.438,-9.88 0.957,-2.996 2.463,-5.641 4.475,-7.863 2.015,-2.226 4.586,-3.976 7.643,-5.203 3.05,-1.226 6.742,-1.848 10.973,-1.848 4.229,0 7.949,0.622 11.059,1.847 3.115,1.227 5.717,2.978 7.732,5.204 2.01,2.219 3.532,4.863 4.52,7.861 0.985,2.985 1.485,6.311 1.485,9.882 l 0,9.61 -12.038,0 0,-8.544 c -0.002,-2.723 -0.311,-5.089 -0.92,-7.032 z"
         id="path4290"
         inkscape:connector-curvature="0"
         style="fill:#ffffff" /><path
         d="m 669.396,298.309 c 0,3.579 -0.499,6.905 -1.483,9.885 -0.985,2.99 -2.507,5.634 -4.521,7.86 -2.016,2.225 -4.617,3.976 -7.732,5.203 -3.112,1.226 -6.833,1.848 -11.06,1.848 -4.227,0 -7.917,-0.622 -10.972,-1.849 -3.055,-1.226 -5.626,-2.976 -7.642,-5.201 -2.014,-2.226 -3.52,-4.872 -4.476,-7.864 -0.954,-2.983 -1.437,-6.308 -1.437,-9.882 l 0,-30.425 12.037,0 0,29.361 c 0,2.734 0.309,5.099 0.914,7.029 0.603,1.924 1.471,3.502 2.578,4.694 1.106,1.194 2.434,2.087 3.938,2.654 1.511,0.573 3.242,0.863 5.147,0.863 1.903,0 3.651,-0.291 5.193,-0.864 1.533,-0.568 2.871,-1.461 3.979,-2.653 1.108,-1.194 1.979,-2.773 2.579,-4.693 0.607,-1.94 0.917,-4.305 0.917,-7.03 l 0,-29.361 12.038,0 0,30.425 z"
         id="path4292"
         inkscape:connector-curvature="0"
         style="fill:#ffffff" /><path
         d="m 657.387,259.099 c 0,-3.302 2.685,-5.989 5.986,-5.989 3.305,0 5.995,2.687 5.995,5.989 0,3.305 -2.69,5.994 -5.995,5.994 -3.302,0 -5.986,-2.689 -5.986,-5.994 z"
         id="path4294"
         inkscape:connector-curvature="0"
         style="fill:#ffffff" /><path
         d="m 693.726,174.163 c -0.603,-1.92 -1.472,-3.499 -2.581,-4.693 -1.107,-1.193 -2.446,-2.085 -3.979,-2.652 -1.54,-0.573 -3.288,-0.863 -5.193,-0.863 -1.903,0 -3.635,0.29 -5.146,0.862 -1.508,0.569 -2.834,1.462 -3.941,2.653 -1.105,1.193 -1.973,2.772 -2.575,4.693 -0.606,1.932 -0.914,4.298 -0.914,7.032 l 0,69.734 -12.038,0 0,-70.8 c 0,-3.571 0.482,-6.896 1.438,-9.881 0.958,-2.996 2.463,-5.642 4.477,-7.863 2.012,-2.224 4.584,-3.975 7.643,-5.202 3.055,-1.227 6.744,-1.849 10.969,-1.849 4.227,0 7.948,0.622 11.06,1.848 3.119,1.228 5.719,2.979 7.731,5.203 2.014,2.22 3.535,4.865 4.522,7.86 0.983,2.988 1.483,6.314 1.483,9.885 l 0,9.609 -12.04,0 0,-8.543 c -0.002,-2.729 -0.31,-5.095 -0.916,-7.033 z"
         id="path4296"
         inkscape:connector-curvature="0"
         style="fill:#ffffff" /><path
         d="m 743.963,223.048 c 0,3.577 -0.499,6.903 -1.482,9.884 -0.986,2.993 -2.506,5.638 -4.518,7.86 -2.018,2.226 -4.619,3.976 -7.732,5.203 -3.115,1.226 -6.837,1.848 -11.06,1.848 -4.229,0 -7.921,-0.622 -10.974,-1.849 -3.057,-1.226 -5.626,-2.976 -7.642,-5.201 -2.012,-2.223 -3.518,-4.868 -4.476,-7.863 -0.954,-2.989 -1.438,-6.313 -1.438,-9.881 l 0,-30.426 12.038,0 0,29.361 c 0,2.729 0.308,5.095 0.915,7.031 0.603,1.92 1.469,3.499 2.58,4.692 1.106,1.194 2.432,2.087 3.937,2.654 1.513,0.573 3.243,0.863 5.146,0.863 1.907,0 3.654,-0.291 5.194,-0.864 1.534,-0.566 2.872,-1.459 3.981,-2.653 1.106,-1.19 1.975,-2.769 2.577,-4.692 0.607,-1.936 0.916,-4.301 0.916,-7.031 l 0,-29.361 12.037,0 0,30.425 z"
         id="path4298"
         inkscape:connector-curvature="0"
         style="fill:#ffffff" /></g><g
       id="g4300"><path
         d="m 360.49,646.299 c -2.566,0 -5.878,-0.32 -9.943,-0.962 -4.06,-0.642 -7.482,-1.498 -10.264,-2.565 l 3.849,-24.377 c 2.14,0.641 4.601,1.172 7.377,1.603 2.781,0.427 5.347,0.642 7.698,0.642 10.265,0 17.586,-3.157 21.972,-9.461 4.38,-6.311 6.575,-15.557 6.575,-27.746 l 0,-163.906 29.83,0 0,163.584 c 0,21.38 -4.866,37.257 -14.594,47.631 -9.733,10.37 -23.896,15.557 -42.5,15.557 z"
         id="path4302"
         inkscape:connector-curvature="0"
         style="fill:#ffffff;fill-opacity:1" /><path
         d="m 595.598,581.507 c -6.847,1.714 -15.877,3.528 -27.103,5.454 -11.227,1.924 -24.217,2.887 -38.972,2.887 -12.83,0 -23.63,-1.875 -32.396,-5.614 -8.771,-3.738 -15.826,-9.03 -21.168,-15.876 -5.348,-6.842 -9.197,-14.916 -11.547,-24.218 -2.356,-9.302 -3.528,-19.616 -3.528,-30.952 l 0,-93.66 29.83,0 0,87.245 c 0,20.317 3.208,34.856 9.622,43.622 6.416,8.771 17.21,13.15 32.396,13.15 3.208,0 6.52,-0.105 9.943,-0.32 3.417,-0.211 6.625,-0.481 9.623,-0.802 2.992,-0.321 5.718,-0.642 8.179,-0.963 2.457,-0.32 4.22,-0.691 5.293,-1.122 l 0,-140.811 29.83,0 0,161.98 z"
         id="path4304"
         inkscape:connector-curvature="0"
         style="fill:#ffffff;fill-opacity:1" /><path
         d="m 615.162,646.299 c -2.566,0 -5.879,-0.32 -9.943,-0.962 -4.06,-0.642 -7.484,-1.498 -10.265,-2.565 l 3.85,-24.377 c 2.14,0.641 4.601,1.172 7.377,1.603 2.782,0.427 5.348,0.642 7.698,0.642 10.265,0 17.587,-3.157 21.972,-9.461 4.38,-6.311 6.575,-15.557 6.575,-27.746 l 0,-163.906 29.83,0 0,163.584 c 0,21.38 -4.866,37.257 -14.595,47.631 -9.732,10.37 -23.895,15.557 -42.499,15.557 z"
         id="path4306"
         inkscape:connector-curvature="0"
         style="fill:#ffffff;fill-opacity:1" /><path
         d="m 850.27,581.507 c -6.846,1.714 -15.878,3.528 -27.104,5.454 -11.227,1.924 -24.217,2.887 -38.972,2.887 -12.83,0 -23.63,-1.875 -32.396,-5.614 -8.771,-3.738 -15.827,-9.03 -21.17,-15.876 -5.347,-6.842 -9.196,-14.916 -11.547,-24.218 -2.355,-9.302 -3.528,-19.616 -3.528,-30.952 l 0,-93.66 29.83,0 0,87.245 c 0,20.317 3.207,34.856 9.622,43.622 6.415,8.771 17.211,13.15 32.396,13.15 3.207,0 6.521,-0.105 9.942,-0.32 3.419,-0.211 6.627,-0.481 9.624,-0.802 2.991,-0.321 5.718,-0.642 8.179,-0.963 2.455,-0.32 4.22,-0.691 5.292,-1.122 l 0,-140.811 29.83,0 0,161.98 z"
         id="path4308"
         inkscape:connector-curvature="0"
         style="fill:#ffffff;fill-opacity:1" /></g></g></svg>