<?xml version="1.0" encoding="UTF-8" standalone="no"?>
<!-- Created with Inkscape (http://www.inkscape.org/) -->

<svg
   xmlns:dc="http://purl.org/dc/elements/1.1/"
   xmlns:cc="http://creativecommons.org/ns#"
   xmlns:rdf="http://www.w3.org/1999/02/22-rdf-syntax-ns#"
   xmlns:svg="http://www.w3.org/2000/svg"
   xmlns="http://www.w3.org/2000/svg"
   xmlns:sodipodi="http://sodipodi.sourceforge.net/DTD/sodipodi-0.dtd"
   xmlns:inkscape="http://www.inkscape.org/namespaces/inkscape"
   width="358.6759mm"
   height="204.79262mm"
   viewBox="0 0 1270.8989 725.64313"
   id="svg14286"
   version="1.1"
   inkscape:version="0.91 r13725"
   sodipodi:docname="rdo_manager_logo.svg">
  <defs
     id="defs14288" />
  <sodipodi:namedview
     id="base"
     pagecolor="#ffffff"
     bordercolor="#666666"
     borderopacity="1.0"
     inkscape:pageopacity="0.0"
     inkscape:pageshadow="2"
     inkscape:zoom="0.98994949"
     inkscape:cx="731.53268"
     inkscape:cy="279.46747"
     inkscape:document-units="px"
     inkscape:current-layer="layer1"
     showgrid="false"
     fit-margin-top="5"
     fit-margin-left="5"
     fit-margin-right="5"
     fit-margin-bottom="5"
     inkscape:window-width="2560"
     inkscape:window-height="1456"
     inkscape:window-x="0"
     inkscape:window-y="64"
     inkscape:window-maximized="1" />
  <metadata
     id="metadata14291">
    <rdf:RDF>
      <cc:Work
         rdf:about="">
        <dc:format>image/svg+xml</dc:format>
        <dc:type
           rdf:resource="http://purl.org/dc/dcmitype/StillImage" />
        <dc:title></dc:title>
      </cc:Work>
    </rdf:RDF>
  </metadata>
  <g
     inkscape:label="Layer 1"
     inkscape:groupmode="layer"
     id="layer1"
     transform="translate(154.59862,71.020244)">
    <g
       id="g15046"
       transform="translate(-1008.5714,175.71429)">
      <g
         transform="translate(-1061.2591,-782.64688)"
         id="g15019">
        <path
           sodipodi:nodetypes="ccccssscccssscsssssscccsssssscscscccssssscccssssssscccccscscccssssssssccsssssssssssss"
           inkscape:connector-curvature="0"
           id="path15021"
           d="m 2036.7705,925.55096 0.5,-59.5 32,0 32,0 7.8393,3.3805 c 17.5805,7.5812 36.1338,22.8358 46.3623,38.1195 12.8053,19.1338 19.0967,37.923 21.5974,64.5 l 1.2232,13 60.4889,0 60.4889,0 -0.242,-10 c -0.7078,-29.245 -12.6728,-60.715 -32.3175,-85 -13.0321,-16.1105 -35.113,-34.1114 -50.4635,-41.1391 -2.9913,-1.3695 -5.6907,-2.8976 -5.9986,-3.3959 -0.308,-0.4982 4.0614,-3.2249 9.7097,-6.0594 13.3882,-6.7185 22.5013,-12.9394 32.7812,-22.37736 22.7343,-20.87253 36.9243,-45.15641 43.5496,-74.52821 10.4517,-46.33479 1.5743,-93.15935 -24.1438,-127.3481 -24.8002,-32.9687 -60.2508,-52.87431 -105.8042,-59.40939 -10.865,-1.55869 -23.1099,-1.73223 -122.5709,-1.7371 l -110.5,-0.005 0,47.5 0,47.5 100.5,0.55712 c 108.143,0.59949 104.6571,0.42835 119.0423,5.84447 7.3459,2.76577 16.4029,10.2969 20.5626,17.09841 9.4472,15.4471 9.9307,44.16904 1.0389,61.71628 -7.8215,15.43493 -23.0236,27.15304 -42.1438,32.48548 -7.9524,2.21784 -8.5681,2.23429 -103.5,2.76468 l -95.5,0.53315 -0.2576,106.49997 c -0.1417,58.575 -0.042,107.0666 0.2221,107.7591 0.3788,0.9942 11.2675,1.2046 51.7576,1 l 51.2779,-0.2591 z m 468.5,57.6201 c 40.8595,-5.3171 78.1601,-17.9804 109.8948,-37.3085 43.8497,-26.7067 73.6071,-67.403 86.6562,-118.5113 9.5672,-37.47129 8.7125,-89.66372 -2.0823,-127.14055 -23.9182,-83.03847 -95.292,-134.36209 -201.4687,-144.8725 -9.3957,-0.93008 -35.1802,-1.28692 -93,-1.28704 l -80,-1.8e-4 0,47.5 0,47.5 81.5,0.58237 c 55.5341,0.39683 83.7302,0.95915 88.5,1.76497 39.9726,6.75305 64.2221,22.86301 79.2554,52.65266 3.2535,6.447 8.0159,21.61867 9.7807,31.15834 2.4823,13.41776 3.0258,42.17549 1.0766,56.95378 -7.3056,55.38695 -39.5908,87.48545 -98.6127,98.04245 -7.094,1.2689 -15.5783,1.7178 -33.5,1.7724 l -24,0.073 -0.5,-61 -0.5,-61.00005 -51.5,0 -51.5,0 -0.2576,106.50005 c -0.1417,58.575 -0.03,107.0983 0.2491,107.8295 0.4178,1.0962 15.1252,1.2552 83.7576,0.9059 70.6593,-0.3596 85.2171,-0.6795 96.2509,-2.1154 z m 463.6439,1.341 c 32.9583,-3.3065 64.4415,-13.8755 92.5115,-31.0562 25.9765,-15.8993 55.381,-45.3234 71.3242,-71.3716 46.5267,-76.01557 41.93,-170.62596 -11.7557,-241.96064 -9.7133,-12.90651 -29.89,-33.08321 -42.7965,-42.79651 -71.3621,-53.70636 -165.9636,-58.27108 -242.0828,-11.681 -25.9765,15.89935 -55.381,45.32337 -71.3242,71.37163 -46.5267,76.01555 -41.93,170.62592 11.7557,241.96062 9.7133,12.9065 29.89,33.0832 42.7965,42.7965 43.4579,32.706 97.0176,48.0096 149.5714,42.7372 z m -38.3585,-104.5117 c -9.6297,-1.4994 -23.9068,-5.9745 -32.0225,-10.0372 -21.0675,-10.5464 -39.6287,-29.1076 -50.1751,-50.17508 -6.7664,-13.51659 -11.576,-34.38922 -11.576,-50.23709 0,-15.84787 4.8096,-36.7205 11.576,-50.23709 10.5464,-21.06748 29.1076,-39.6287 50.1751,-50.17507 13.5166,-6.76641 34.3892,-11.57605 50.237,-11.57605 15.8479,0 36.7206,4.80964 50.2372,11.57605 20.986,10.5056 39.6695,29.18903 50.175,50.17507 6.7664,13.51659 11.576,34.38922 11.576,50.23709 0,15.84787 -4.8096,36.7205 -11.576,50.23709 -10.5055,20.98608 -29.1891,39.66948 -50.175,50.17508 -19.5553,9.7894 -45.5572,13.6021 -68.4517,10.0372 z"
           style="fill:#7e0e0e" />
      </g>
      <g
         transform="matrix(6.6873801,0,0,6.6873801,-520.11229,-3538.4673)"
         id="g15041">
        <path
           style="opacity:1;fill:#7e0e0e;fill-opacity:1;stroke:none;stroke-width:8.10000038;stroke-miterlimit:4;stroke-dasharray:none;stroke-dashoffset:0;stroke-opacity:1"
           d="M 18.5625 464.07422 L 18.5625 707.92578 L 1253.1816 707.92578 L 1253.1816 464.07422 L 18.5625 464.07422 z M 855.93359 509.79102 C 865.50267 509.79102 874.51695 510.67015 882.97656 512.42773 C 891.50549 514.18528 898.92433 516.41515 905.23438 519.11914 L 892.23438 550.55273 C 881.2785 545.28002 869.24807 542.64453 856.14258 542.64453 C 844.14659 542.64453 834.855 546.46287 828.26758 554.10156 C 821.74951 561.67264 818.49023 572.52221 818.49023 586.65039 C 818.49023 600.50821 821.43607 611.088 827.33008 618.38867 C 833.29339 625.62177 841.85754 629.23828 853.02148 629.23828 C 859.12351 629.23828 864.73987 628.66287 869.87109 627.51367 L 869.87109 604.29492 L 842.72461 604.29492 L 842.72461 573.36719 L 908.35547 573.36719 L 908.35547 653.26953 C 890.53484 659.21825 870.94693 662.19336 849.58984 662.19336 C 826.15259 662.19336 808.01952 655.56775 795.19141 642.31836 C 782.43265 629.06893 776.05273 610.17511 776.05273 585.63672 C 776.05273 561.70667 783.05561 543.08263 797.0625 529.76562 C 811.06939 516.44866 830.69341 509.79102 855.93359 509.79102 z M 327.6582 511.3125 L 382.47266 511.3125 L 432.71094 660.16406 L 387.77734 660.16406 L 380.28906 632.38086 L 330.88281 632.38086 L 323.18555 660.16406 L 278.04492 660.16406 L 327.6582 511.3125 z M 660.08008 511.3125 L 714.89453 511.3125 L 765.13086 660.16406 L 720.19922 660.16406 L 712.70898 632.38086 L 663.30469 632.38086 L 655.60742 660.16406 L 610.4668 660.16406 L 660.08008 511.3125 z M 88.535156 511.91992 L 143.24609 511.91992 L 174.96875 587.17188 L 175.80078 587.17188 L 206.90039 511.91992 L 261.71484 511.91992 L 261.71484 660.16406 L 223.95898 660.16406 L 223.95898 595.16797 C 223.95898 591.78804 223.99274 588.03565 224.0625 583.91211 C 224.20135 579.78857 224.68713 569.68425 225.51953 553.5957 L 224.58203 553.5957 L 193.89844 640.16406 L 154.79102 640.16406 L 123.69141 553.39258 L 122.75586 553.39258 C 124.21206 571.57673 124.93945 585.70504 124.93945 595.77734 L 124.93945 660.16406 L 88.535156 660.16406 L 88.535156 511.91992 z M 449.24805 511.91992 L 502.91797 511.91992 L 558.25195 614.94141 L 558.87695 614.94141 C 557.90616 600.00204 557.41992 588.00357 557.41992 578.94531 L 557.41992 511.91992 L 594.03125 511.91992 L 594.03125 660.16406 L 540.1543 660.16406 L 484.61133 555.72461 L 483.67578 555.72461 C 484.99327 572.15115 485.65234 584.69108 485.65234 593.34375 L 485.65234 660.16406 L 449.24805 660.16406 L 449.24805 511.91992 z M 939.35156 511.91992 L 1029.6328 511.91992 L 1029.6328 544.0625 L 980.43555 544.0625 L 980.43555 567.38477 L 1025.9922 567.38477 L 1025.9922 599.5293 L 980.43555 599.5293 L 980.43555 627.51367 L 1029.6328 627.51367 L 1029.6328 660.16406 L 939.35156 660.16406 L 939.35156 511.91992 z M 1056.2598 511.91992 L 1106.082 511.91992 C 1147.4093 511.91992 1168.0723 526.52184 1168.0723 555.72461 C 1168.0723 572.89476 1159.474 586.17798 1142.2773 595.57422 L 1186.5859 660.16406 L 1139.9902 660.16406 L 1107.7461 606.2207 L 1097.3457 606.2207 L 1097.3457 660.16406 L 1056.2598 660.16406 L 1056.2598 511.91992 z M 355.32617 535.74805 C 354.70206 539.19561 353.45423 544.87415 351.58203 552.7832 C 349.77915 560.6923 345.72216 576.27524 339.41211 599.5293 L 371.75977 599.5293 L 365.20703 575.19336 C 363.68152 569.78541 361.80877 562.78818 359.58984 554.20312 C 357.44027 545.61804 356.01955 539.46597 355.32617 535.74805 z M 687.74609 535.74805 C 687.12203 539.19561 685.87419 544.87415 684.00195 552.7832 C 682.19911 560.6923 678.14403 576.27524 671.83398 599.5293 L 704.17969 599.5293 L 697.62891 575.19336 C 696.1034 569.78541 694.23065 562.78818 692.01172 554.20312 C 689.86215 545.61806 688.43951 539.46597 687.74609 535.74805 z M 1097.3457 542.23828 L 1097.3457 576.10547 L 1105.041 576.10547 C 1119.3946 576.10547 1126.5723 569.91947 1126.5723 557.54883 C 1126.5723 547.34141 1119.5333 542.23828 1105.457 542.23828 L 1097.3457 542.23828 z "
           transform="matrix(0.14953539,0,0,0.14953539,205.47435,492.23055)"
           id="rect15039" />
        <g
           transform="scale(1.0128038,0.9873581)"
           style="font-style:normal;font-variant:normal;font-weight:800;font-stretch:normal;font-size:31.45072365px;line-height:125%;font-family:'open sans';-inkscape-font-specification:'open sans Ultra-Bold';letter-spacing:0px;word-spacing:0px;fill:#ffffff;fill-opacity:1;stroke:none;stroke-width:1px;stroke-linecap:butt;stroke-linejoin:miter;stroke-opacity:1"
           id="text15035" />
      </g>
    </g>
  </g>
</svg>
